<svg width="24" height="25" viewBox="0 0 24 25" fill="none" xmlns="http://www.w3.org/2000/svg">
<g id="mdi:magnify">
<path id="Vector" d="M9.5 3.33203C11.2239 3.33203 12.8772 4.01685 14.0962 5.23584C15.3152 6.45482 16 8.10812 16 9.83203C16 11.442 15.41 12.922 14.44 14.062L14.71 14.332H15.5L20.5 19.332L19 20.832L14 15.832V15.042L13.73 14.772C12.5504 15.7785 11.0506 16.3316 9.5 16.332C7.77609 16.332 6.12279 15.6472 4.90381 14.4282C3.68482 13.2092 3 11.5559 3 9.83203C3 8.10812 3.68482 6.45482 4.90381 5.23584C6.12279 4.01685 7.77609 3.33203 9.5 3.33203ZM9.5 5.33203C7 5.33203 5 7.33203 5 9.83203C5 12.332 7 14.332 9.5 14.332C12 14.332 14 12.332 14 9.83203C14 7.33203 12 5.33203 9.5 5.33203Z" fill="black" style="fill:black;fill-opacity:1;"/>
</g>
</svg>
