<svg width="22" height="22" viewBox="0 0 22 22" fill="none" xmlns="http://www.w3.org/2000/svg">
<g id="logos:facebook" clip-path="url(#clip0_418_1448)">
<path id="Vector" d="M21.5231 11.2155C21.5231 5.40376 16.8117 0.692383 11 0.692383C5.18831 0.692383 0.476929 5.40376 0.476929 11.2155C0.476929 16.4678 4.32509 20.8213 9.35577 21.6107V14.2573H6.6839V11.2155H9.35577V8.89709C9.35577 6.25975 10.9268 4.80296 13.3305 4.80296C14.4818 4.80296 15.6861 5.00849 15.6861 5.00849V7.59815H14.3592C13.0519 7.59815 12.6442 8.40933 12.6442 9.24156V11.2155H15.5627L15.0962 14.2573H12.6442V21.6107C17.6749 20.8213 21.5231 16.4679 21.5231 11.2155Z" fill="#1877F2" style="fill:#1877F2;fill:color(display-p3 0.0941 0.4667 0.9490);fill-opacity:1;"/>
<path id="Vector_2" d="M15.0961 14.2571L15.5627 11.2152H12.6442V9.24134C12.6442 8.40903 13.0519 7.59793 14.3591 7.59793H15.686V5.00826C15.686 5.00826 14.4818 4.80273 13.3304 4.80273C10.9268 4.80273 9.35571 6.25952 9.35571 8.89687V11.2152H6.68384V14.2571H9.35571V21.6105C9.89964 21.6957 10.4494 21.7384 10.9999 21.7383C11.5505 21.7384 12.1002 21.6957 12.6442 21.6105V14.2571H15.0961Z" fill="white" style="fill:white;fill-opacity:1;"/>
</g>
<defs>
<clipPath id="clip0_418_1448">
<rect width="21.0462" height="21.0462" fill="white" style="fill:white;fill-opacity:1;" transform="translate(0.477051 0.692383)"/>
</clipPath>
</defs>
</svg>
