<svg width="17" height="17" viewBox="0 0 17 17" fill="none" xmlns="http://www.w3.org/2000/svg">
<g id="devicon:google" clip-path="url(#clip0_418_1423)">
<path id="Vector" d="M5.73369 0.569074C4.09815 1.13646 2.68766 2.21337 1.7094 3.64163C0.731145 5.06989 0.236683 6.77422 0.298644 8.50427C0.360606 10.2343 0.975724 11.8989 2.05365 13.2535C3.13157 14.6081 4.61549 15.5814 6.28743 16.0303C7.6429 16.3801 9.06305 16.3954 10.4258 16.0751C11.6603 15.7978 12.8016 15.2047 13.738 14.3538C14.7126 13.4411 15.42 12.2801 15.7841 10.9955C16.18 9.59858 16.2504 8.12953 15.99 6.70114H8.37834V9.85861H12.7865C12.6984 10.3622 12.5096 10.8428 12.2314 11.2718C11.9533 11.7007 11.5914 12.0691 11.1675 12.3549C10.6292 12.711 10.0224 12.9506 9.38607 13.0583C8.74786 13.177 8.09323 13.177 7.45501 13.0583C6.80816 12.9245 6.19624 12.6576 5.65823 12.2744C4.79392 11.6625 4.14495 10.7934 3.80391 9.79083C3.4571 8.76954 3.4571 7.66233 3.80391 6.64104C4.04667 5.92516 4.44798 5.27335 4.97789 4.73428C5.58431 4.10604 6.35205 3.65697 7.19689 3.43634C8.04172 3.21572 8.931 3.23205 9.76717 3.48356C10.4204 3.68408 11.0177 4.03441 11.5115 4.50664C12.0086 4.01215 12.5048 3.51639 13.0001 3.01934C13.2559 2.75206 13.5346 2.49757 13.7866 2.2239C13.0328 1.52242 12.148 0.976587 11.1828 0.61767C9.42534 -0.0204874 7.5023 -0.0376372 5.73369 0.569074Z" fill="white" style="fill:white;fill-opacity:1;"/>
<path id="Vector_2" d="M5.73298 0.568963C7.50145 -0.0381605 9.42449 -0.0214621 11.1821 0.61628C12.1474 0.977636 13.0318 1.5261 13.7846 2.23018C13.5288 2.50386 13.259 2.75963 12.9981 3.02563C12.5019 3.52097 12.0062 4.0146 11.5108 4.50653C11.017 4.0343 10.4197 3.68397 9.76646 3.48345C8.93058 3.23106 8.04133 3.21378 7.19627 3.4335C6.3512 3.65323 5.58299 4.10147 4.97591 4.72905C4.446 5.26813 4.04469 5.91993 3.80193 6.63581L1.15088 4.58326C2.09979 2.70152 3.74278 1.26213 5.73298 0.568963Z" fill="#E33629" style="fill:#E33629;fill:color(display-p3 0.8902 0.2118 0.1608);fill-opacity:1;"/>
<path id="Vector_3" d="M0.447392 6.61686C0.589882 5.91067 0.826446 5.22679 1.15076 4.5835L3.8018 6.64116C3.455 7.66245 3.455 8.76966 3.8018 9.79096C2.91855 10.473 2.03487 11.1585 1.15076 11.8473C0.338882 10.2313 0.0912748 8.38998 0.447392 6.61686Z" fill="#F8BD00" style="fill:#F8BD00;fill:color(display-p3 0.9725 0.7412 0.0000);fill-opacity:1;"/>
<path id="Vector_4" d="M8.37728 6.69971H15.989C16.2493 8.12809 16.1789 9.59715 15.7831 10.9941C15.4189 12.2786 14.7115 13.4397 13.7369 14.3523C12.8814 13.6848 12.022 13.0223 11.1664 12.3548C11.5906 12.0687 11.9526 11.6999 12.2308 11.2705C12.509 10.8411 12.6977 10.3599 12.7855 9.8559H8.37728C8.376 8.80469 8.37728 7.7522 8.37728 6.69971Z" fill="#587DBD" style="fill:#587DBD;fill:color(display-p3 0.3451 0.4902 0.7412);fill-opacity:1;"/>
<path id="Vector_5" d="M1.14966 11.8474C2.03377 11.1653 2.91745 10.4799 3.80071 9.79102C4.14242 10.7939 4.79233 11.6631 5.65759 12.2745C6.19727 12.656 6.81051 12.9208 7.45821 13.0521C8.09642 13.1707 8.75105 13.1707 9.38927 13.0521C10.0256 12.9444 10.6324 12.7048 11.1707 12.3487C12.0262 13.0163 12.8856 13.6787 13.7412 14.3463C12.8049 15.1976 11.6636 15.7912 10.429 16.0689C9.06624 16.3892 7.6461 16.3739 6.29062 16.0241C5.21857 15.7379 4.2172 15.2333 3.34927 14.5419C2.43063 13.8126 1.68032 12.8935 1.14966 11.8474Z" fill="#319F43" style="fill:#319F43;fill:color(display-p3 0.1922 0.6235 0.2627);fill-opacity:1;"/>
</g>
<defs>
<clipPath id="clip0_418_1423">
<rect width="16.3692" height="16.3692" fill="white" style="fill:white;fill-opacity:1;" transform="translate(0.0307617 0.0307617)"/>
</clipPath>
</defs>
</svg>
